# xmcd CD database file
#
# Track frame offsets:
#	150
#	4240
#	14882
#	29526
#	49872
#	63958
#	81248
#	93353
#	112935
#	144696
#	158061
#	171578
#	189754
#
# Disc length: 2902 seconds
#
# Revision: 0
# Processed by: cddbd v1.4PL0 Copyright (c) Steve Scherf et al.
# Submitted via: CDex 1.51
#
DISCID=ab0b540d
DTITLE=The Original Local Blues Brothers - Live Kilden 2003
DYEAR=2003
DGENRE=Blues
TTITLE0=Chicken Shack
TTITLE1=Born In Chicago
TTITLE2=Cheaper To Keep Her
TTITLE3=She Caught The Cady
TTITLE4=Rawhide
TTITLE5=Think
TTITLE6=Chain Of Fools
TTITLE7=Blues, Why Do You Worry Me
TTITLE8=Sweet Home Chicago
TTITLE9=Never Loved A Man
TTITLE10=Viva Las Vegas
TTITLE11=Mustang Sally/Chicken Shack
TTITLE12=Good Night Irene
EXTD=YEAR: 2003
EXTT0=
EXTT1=
EXTT2=
EXTT3=
EXTT4=
EXTT5=
EXTT6=
EXTT7=
EXTT8=
EXTT9=
EXTT10=
EXTT11=
EXTT12=
PLAYORDER=
